<svg xmlns="http://www.w3.org/2000/svg" width="18" height="16" viewBox="0 0 18 16">
    <path fill="#ACB2BE" fill-rule="nonzero" stroke="#ACB2BE" stroke-width=".5" d="M15.541 1H3.171C1.97 1 1 1.995 1 3.223v7.395c0 1.228.972 2.223 2.17 2.223h4.883v3.274c0 .346.196.661.502.807.308.142.67.087.924-.14l4.593-3.941h1.469c1.199 0 2.17-.995 2.17-2.223V3.223c0-1.228-.971-2.223-2.17-2.223zm1.302 9.616c0 .737-.583 1.334-1.302 1.334h-1.628a.428.428 0 0 0-.28.104l-4.711 4.061v-3.719a.44.44 0 0 0-.434-.444H3.17c-.719 0-1.302-.597-1.302-1.334V3.223c0-.737.583-1.334 1.302-1.334h12.371c.72 0 1.302.597 1.302 1.334v7.393z"/>
</svg>
