<svg xmlns="http://www.w3.org/2000/svg" width="23" height="18" viewBox="0 0 23 18">
    <path fill="#2C54E0" fill-rule="nonzero" stroke="#2C54E0" stroke-width=".2" d="M6.576 1c-1.724 0-3.075.502-4.016 1.491C1.408 3.703.89 5.626 1.02 8.206c.102 2.039 1.23 3.08 2.16 3.594l.106.058a2.873 2.873 0 0 0-1.542 2.548v2.088c0 .245.198.443.443.443h8.78a.443.443 0 0 0 .442-.443v-2.088c0-1.1-.619-2.066-1.543-2.548l.108-.058c.928-.514 2.057-1.555 2.16-3.594.13-2.58-.39-4.503-1.541-5.715C9.652 1.501 8.3 1 6.576 1zm-.72 11.42a.443.443 0 0 0 .443-.444v-.733a4.225 4.225 0 0 0 .555 0v.733c0 .245.198.443.443.443h.464l-1.185 1.184-1.184-1.184h.464zm1.909-.887H7.74v-.442c.169-.047.334-.105.495-.172a7.003 7.003 0 0 1-.47.614zm1.303-2.248a3.418 3.418 0 0 1-2.492 1.08 3.42 3.42 0 0 1-2.491-1.08c-.353-1.023-.385-2.01-.1-2.954.09.03.187.03.279-.001.006-.002.651-.204 2.312-.204 1.662 0 2.306.202 2.309.202a.443.443 0 0 0 .283.002c.285.943.252 1.932-.1 2.955zm-3.655 1.806v.442h-.025a6.938 6.938 0 0 1-.472-.615c.162.068.328.126.497.173zm5.11 3.315v1.645H2.63v-1.645c0-.941.656-1.742 1.556-1.94l2.077 2.078a.442.442 0 0 0 .627 0l2.077-2.078c.9.198 1.556.999 1.556 1.94zm6.94-13.25c1.35 0 2.518.423 3.29 1.193.647.644.989 1.508.989 2.497 0 0 .013 1.362.013 1.477a4.308 4.308 0 0 1-2.822 4.038v.543h.796a2.877 2.877 0 0 1 2.873 2.873v2.717a.443.443 0 0 1-.443.443H12.75a.443.443 0 0 1-.443-.443v-2.717a2.877 2.877 0 0 1 2.874-2.873h.795v-.543a4.308 4.308 0 0 1-2.821-4.038c0-.115.013-1.435.013-1.435 0-2.223 1.717-3.723 4.272-3.732zM19.74 11.79l-1.909 3.093a.443.443 0 0 1-.754 0l-1.909-3.093a1.99 1.99 0 0 0-1.975 1.987v2.274h8.522v-2.274a1.99 1.99 0 0 0-1.975-1.987zm-1.042 0h-2.488l1.244 2.016 1.244-2.016zM6.576 1.886c1.472 0 2.607.41 3.374 1.216.979 1.029 1.415 2.731 1.298 5.06-.095 1.882-1.245 2.718-2.166 3.086.263-.406.544-.916.764-1.506l.024-.066a.34.34 0 0 0 .007-.017c.509-1.422.728-3.539-1.002-5.695a.442.442 0 0 0-.729.5c.087.15.265.51.366.889a13.945 13.945 0 0 0-1.936-.114c-.895 0-1.522.055-1.935.114.102-.378.28-.74.366-.889a.443.443 0 0 0-.73-.5c-1.728 2.156-1.51 4.273-1 5.695l.006.017.024.066c.219.587.498 1.095.76 1.5a4.121 4.121 0 0 1-.458-.217c-1.065-.59-1.638-1.553-1.704-2.863-.117-2.33.32-4.031 1.298-5.06.767-.807 1.902-1.216 3.373-1.216zm11.471 8.696a4.31 4.31 0 0 1-1.184 0v.322h1.184zM16.04 4.74c-.326.554-.994 1.444-1.997 1.65a3.418 3.418 0 0 0 3.413 3.347c1.85 0 3.362-1.48 3.413-3.319-1.96-.14-3.977-1.187-4.829-1.678zm1.423-2.696h-.02c-1.562.005-3.387.753-3.387 2.845v.577c.877-.324 1.396-1.51 1.402-1.523a.444.444 0 0 1 .649-.198c.026.017 2.484 1.59 4.75 1.783v-.681c0-.76-.245-1.388-.728-1.87-.605-.602-1.551-.933-2.666-.933z"/>
</svg>
