<svg xmlns="http://www.w3.org/2000/svg" width="18" height="18" viewBox="0 0 18 18">
    <g fill="#2C54E0" fill-rule="nonzero">
        <path d="M9 0C4.038 0 0 4.038 0 9s4.038 9 9 9 9-4.038 9-9-4.038-9-9-9zm0 16.875c-4.341 0-7.875-3.533-7.875-7.875 0-4.343 3.534-7.875 7.875-7.875S16.875 4.657 16.875 9c0 4.342-3.534 7.875-7.875 7.875z"/>
        <path d="M15.399 10.348a.56.56 0 0 0-.448-.223H3.05a.56.56 0 0 0-.541.716A6.765 6.765 0 0 0 9 15.75c3.01 0 5.679-2.02 6.492-4.91a.564.564 0 0 0-.093-.492zM9 14.625a5.643 5.643 0 0 1-5.155-3.375h10.31A5.643 5.643 0 0 1 9 14.625zM13.274 7.987l-1.65-1.237 1.651-1.237a.563.563 0 0 0-.674-.9L10.351 6.3a.56.56 0 0 0-.001.9l2.25 1.687a.566.566 0 0 0 .787-.112.563.563 0 0 0-.113-.788zM7.65 6.3L5.4 4.612a.563.563 0 0 0-.675.9l1.65 1.238-1.65 1.237a.563.563 0 0 0 .675.9L7.65 7.2a.562.562 0 0 0 0-.9z"/>
    </g>
</svg>
