<svg xmlns="http://www.w3.org/2000/svg" width="18" height="15" viewBox="0 0 18 15">
    <path fill="#ACB2BE" fill-rule="nonzero" d="M12.423 0A5.039 5.039 0 0 0 8.76 1.568C7.83.573 6.512 0 5.084 0 3.73 0 2.44.622 1.455 1.75.531 2.812 0 4.202 0 5.565c0 2.04 1.43 4.41 4.252 7.044a34.746 34.746 0 0 0 4.116 3.276.7.7 0 0 0 .768.002 34.027 34.027 0 0 0 4.119-3.256c2.821-2.624 4.252-5.001 4.252-7.066 0-1.36-.535-2.75-1.467-3.815C15.052.621 13.767 0 12.423 0zm-.112 11.555a33.727 33.727 0 0 1-3.556 2.857 34.384 34.384 0 0 1-3.544-2.865C2.729 9.231 1.418 7.162 1.418 5.564c0-1.947 1.568-4.124 3.666-4.124 1.276 0 2.423.624 3.07 1.67a.707.707 0 0 0 .594.337h.006c.24 0 .463-.123.594-.327a3.637 3.637 0 0 1 3.075-1.68c1.919 0 3.666 1.966 3.666 4.124 0 1.618-1.306 3.69-3.778 5.99z"/>
</svg>
