<svg xmlns="http://www.w3.org/2000/svg" width="13" height="20" viewBox="0 0 13 20">
    <path fill="#2C54E0" fill-rule="nonzero" d="M9.277 12.184h-.994v-.678a5.385 5.385 0 0 0 3.527-5.048c0-.143-.017-1.846-.017-1.846 0-1.237-.427-2.316-1.235-3.121C9.592.529 8.132 0 6.443 0h-.027c-3.194.011-5.34 1.885-5.34 4.664 0 0-.017 1.651-.017 1.794a5.385 5.385 0 0 0 3.527 5.048v.678h-.994A3.596 3.596 0 0 0 0 15.776v3.396c0 .306.248.554.554.554h11.76a.554.554 0 0 0 .555-.554v-3.396a3.596 3.596 0 0 0-3.592-3.592zm-7.093-7.52c0-2.614 2.281-3.55 4.235-3.556h.025c1.393 0 2.576.414 3.332 1.168.603.6.909 1.387.909 2.336v.851C7.853 5.221 4.78 3.255 4.748 3.235a.552.552 0 0 0-.463-.065.555.555 0 0 0-.348.312c-.007.017-.657 1.5-1.753 1.904v-.722zm-.016 1.877c1.254-.257 2.088-1.37 2.497-2.063C5.729 5.093 8.251 6.4 10.7 6.576a4.272 4.272 0 0 1-4.266 4.15A4.272 4.272 0 0 1 2.168 6.54zm4.266 5.292c.251 0 .499-.017.74-.05v.401h-1.48v-.402c.242.034.49.051.74.051zm1.556 1.46l-1.556 2.52-1.555-2.52h3.11zm3.77 5.325H1.109v-2.842a2.486 2.486 0 0 1 2.47-2.484l2.385 3.866a.554.554 0 0 0 .943 0l2.386-3.866a2.486 2.486 0 0 1 2.469 2.484v2.842z"/>
</svg>
