<svg xmlns="http://www.w3.org/2000/svg" width="20" height="21" viewBox="0 0 20 21">
    <path fill="#2C54E0" fill-rule="nonzero" stroke="#2C54E0" stroke-width=".1" d="M18.595 7.05c.096-1.724-.258-3.03-1.052-3.882a3.013 3.013 0 0 0-1.67-.915c-.561-1.116-1.48-1.369-2.08-1.339-1.086-.982-2.095-1.002-2.766-.834a2.953 2.953 0 0 0-.92.411 2.952 2.952 0 0 0-.92-.411c-.67-.168-1.679-.148-2.764.834-.604-.03-1.52.223-2.081 1.339-.4.071-1.083.285-1.67.915-.794.853-1.147 2.159-1.051 3.883-.692 1.156-1.257 3.48.914 5.133-.145 1.03.052 2.685 1.572 3.558-.058.395-.065.99.254 1.521.268.445.7.742 1.284.885.349.53 1.348 1.852 2.638 1.852h.027c.667-.01 1.27-.366 1.798-1.06.528.694 1.13 1.05 1.798 1.06h.027c1.29 0 2.288-1.322 2.637-1.852.585-.143 1.017-.44 1.284-.885.32-.53.312-1.126.255-1.521 1.52-.872 1.717-2.529 1.572-3.558 2.17-1.654 1.606-3.977.914-5.133zM13.263 1.8c.121.122.303.171.471.135.075-.016.645-.114 1.093.524-1.703.841-1.725 2.419-1.725 2.492 0 .276.223.498.499.5h.005a.506.506 0 0 0 .504-.495c0-.05.042-1.206 1.485-1.73.186.022.74.123 1.21.628.612.658.88 1.796.773 3.291a.51.51 0 0 0 .082.314c.165.25 1.53 2.474-.764 4.049a.414.414 0 0 0-.09.053c-.512.39-.965.532-1.347.422-.576-.165-.962-.888-1.062-1.153a.503.503 0 0 0-.945.35c.022.058.539 1.426 1.722 1.77.18.053.364.079.55.079.32 0 .649-.078.983-.232-.002.693-.223 1.714-1.374 2.207a.504.504 0 0 0-.28.623c.003.006.206.671-.062 1.117-.145.24-.412.39-.817.457a.506.506 0 0 0-.352.243c-.254.432-1.086 1.548-1.89 1.548h-.013c-.45-.007-.892-.387-1.314-1.13L10.604 1.37c.37-.28 1.4-.828 2.66.43zM9.597 1.36l-.001 16.524-.039.07c-.406.683-.83 1.032-1.261 1.038h-.014c-.803 0-1.635-1.115-1.889-1.548a.503.503 0 0 0-.352-.243c-.403-.067-.67-.216-.814-.454-.229-.375-.124-.938-.065-1.12a.504.504 0 0 0-.28-.623c-1.147-.492-1.37-1.507-1.375-2.202.33.152.654.228.97.228.187 0 .37-.026.55-.08.546-.158.95-.533 1.228-.898.18.237.41.456.698.649a.504.504 0 0 0 .56-.838c-1.514-1.01-.511-3.09-.466-3.181l.014-.034c.473-.252.812-.517 1.079-.726.156-.123.369-.29.435-.299 0 0 .008.002.026.01a.504.504 0 0 0 .45-.9c-.627-.314-1.108.063-1.533.395-.337.264-.757.593-1.429.862-1.219.487-2.243-.749-2.288-.805a.504.504 0 0 0-.786.631c.05.063 1.059 1.3 2.488 1.3.105 0 .214-.008.324-.022-.146.556-.213 1.216-.075 1.854-.12.257-.461.877-1.006 1.035-.384.112-.837-.03-1.35-.421l-.01-.008a.508.508 0 0 0-.016-.011C1.005 9.965 2.389 7.71 2.553 7.46a.505.505 0 0 0 .084-.315c-.106-1.483.156-2.616.759-3.276a1.976 1.976 0 0 1 1.214-.64l-.086-.031C6.04 3.703 6.09 4.893 6.09 4.955A.504.504 0 0 0 7.1 4.95l-.001-.037c-.01-.254-.14-1.666-1.712-2.448.447-.645 1.019-.546 1.088-.532a.505.505 0 0 0 .478-.132c1.244-1.245 2.265-.723 2.645-.442zM7.514 13.836c-1.46 1.46-1.105 2.965-1.089 3.028a.5.5 0 0 0 .605.365.507.507 0 0 0 .374-.604c-.009-.041-.217-1.037.822-2.077a.504.504 0 1 0-.712-.712zm4.01-1.408a.504.504 0 0 0 0 .712c1.033 1.034.833 2.024.821 2.076a.504.504 0 0 0 .98.24c.015-.063.37-1.568-1.09-3.028a.504.504 0 0 0-.712 0zm.64-7.056a.504.504 0 1 0-.083 1.004l.024.003c.057.048.152.299.22.482.165.437.391 1.035.912 1.729.633.843 1.513 1.054 2.236 1.054.694 0 1.242-.195 1.288-.212a.503.503 0 0 0-.345-.947c-.064.023-1.584.55-2.373-.5-.435-.58-.623-1.078-.774-1.48-.19-.504-.406-1.076-1.105-1.133z"/>
</svg>
