<svg xmlns="http://www.w3.org/2000/svg" width="16" height="4" viewBox="0 0 16 4">
    <path fill="#ACB2BE" fill-rule="evenodd" d="M.6.6C1 .2 1.467 0 2 0c.533 0 1 .2 1.4.6.4.4.6.867.6 1.4 0 .533-.2 1-.6 1.4-.4.4-.867.6-1.4.6-.533 0-1-.2-1.4-.6C.2 3 0 2.533 0 2 0 1.467.2 1 .6.6zm12 0c.4-.4.867-.6 1.4-.6.533 0 1 .2 1.4.6.4.4.6.867.6 1.4 0 .533-.2 1-.6 1.4-.4.4-.867.6-1.4.6-.533 0-1-.2-1.4-.6-.4-.4-.6-.867-.6-1.4 0-.533.2-1 .6-1.4zm-6 0C7 .2 7.467 0 8 0c.533 0 1 .2 1.4.6.4.4.6.867.6 1.4 0 .533-.2 1-.6 1.4-.4.4-.867.6-1.4.6-.533 0-1-.2-1.4-.6C6.2 3 6 2.533 6 2c0-.533.2-1 .6-1.4z"/>
</svg>
