<svg xmlns="http://www.w3.org/2000/svg" width="17" height="16" viewBox="0 0 17 16">
    <g stroke="#000" stroke-width=".3">
        <path d="M14.38.158H3.225c-.647 0-1.173.525-1.173 1.17v13.283c0 .139.028.27.074.393h-.877c-.214 0-.39-.175-.39-.39V3.245c0-.215.176-.39.39-.39v-.782c-.646 0-1.172.526-1.172 1.171v11.37c0 .646.526 1.171 1.172 1.171l13.131-.003c.645 0 1.172-.526 1.172-1.171V1.329C15.55.683 15.025.158 14.38.158h0zm.39 14.453c0 .216-.176.391-.39.391H3.224c-.216 0-.39-.175-.39-.39V1.328c0-.215.175-.39.39-.39H14.38c.214 0 .39.175.39.39V14.61h0z" transform="translate(1)"/>
        <path d="M12.673 9.774H4.93c-.15 0-.27.125-.27.277v.16c0 .153.12.278.27.278h7.742c.149 0 .27-.125.27-.278v-.16c-.002-.152-.122-.277-.27-.277h0zM12.673 11.775H4.93c-.15 0-.27.124-.27.277v.16c0 .153.12.278.27.278h7.742c.149 0 .27-.125.27-.279v-.159c-.002-.153-.122-.277-.27-.277h0zM5.463 8.617h3.172c.442 0 .8-.36.8-.802V4.61c0-.442-.359-.801-.8-.801H5.463c-.442 0-.801.36-.801.801v3.206c0 .442.36.802.801.802h0zm0-4.008h3.172l-.002 3.206h-3.17V4.61h0zM10.318 4.719h2.277c.19 0 .346-.156.346-.347 0-.19-.156-.347-.346-.347h-2.277c-.191 0-.348.157-.348.347 0 .191.158.347.348.347h0zM10.318 6.65h2.277c.19 0 .346-.155.346-.346 0-.19-.156-.348-.346-.348h-2.277c-.191 0-.348.157-.348.348 0 .19.158.346.348.346h0zM10.318 8.582h2.277c.19 0 .346-.157.346-.347 0-.191-.156-.347-.346-.347h-2.277c-.191 0-.348.156-.348.347 0 .19.158.347.348.347h0z" transform="translate(1)"/>
    </g>
</svg>
