<svg xmlns="http://www.w3.org/2000/svg" width="16" height="16" viewBox="0 0 16 16">
    <path d="M13.749 10.745V5.933c-.002-2.21-1.237-4.236-3.2-5.25C10.431.614 9.317.013 8 .013c-1.408 0-2.706.61-2.875.682-1.96 1.013-3.194 3.032-3.2 5.238v4.812l-1.44 1.677c-.152.186-.185.442-.085.66.1.218.316.36.556.365h4.338c.068 1.355 1.186 2.42 2.543 2.42 1.356 0 2.475-1.065 2.542-2.42h4.354c.24-.005.456-.147.556-.365.1-.218.067-.474-.086-.66l-1.454-1.677zm-5.912 3.897c-.674-.001-1.236-.517-1.295-1.188h2.59c-.06.671-.621 1.187-1.295 1.188zm-5.533-2.436l.712-.828c.095-.113.147-.256.147-.404v-5.04c0-2.582 2.092-4.674 4.674-4.674 2.581 0 4.674 2.092 4.674 4.673v5.041c0 .148.052.291.147.404l.711.828H2.304z"/>
</svg>
