<svg xmlns="http://www.w3.org/2000/svg" width="22" height="22" viewBox="0 0 22 22">
    <path fill="#2C54E0" fill-rule="nonzero" stroke="#2C54E0" stroke-width=".4" d="M19.143 16.99c-.362 0-.708-.111-.998-.316l-.025.024-.267-.28-6.04-6.6c-.225.2-.453.39-.68.567a1.354 1.354 0 0 1-.235 1.608c-.512.512-1.407.513-1.92 0L5.27 8.283a1.36 1.36 0 0 1 0-1.92 1.388 1.388 0 0 1 1.607-.234c.346-.447.72-.873 1.119-1.27a13.03 13.03 0 0 1 2.113-1.722 1.36 1.36 0 0 1 .141-1.753c.513-.513 1.407-.513 1.92 0l3.708 3.707c.53.53.53 1.392 0 1.921a1.389 1.389 0 0 1-1.753.141c-.152.235-.317.47-.496.706l6.97 6.378-.032.032c.201.29.309.63.309.987 0 .463-.18.898-.508 1.225a1.723 1.723 0 0 1-1.225.508zm-.984-1.379l.31.336c.348.35.992.357 1.356-.007a.956.956 0 0 0 .282-.682c0-.258-.1-.5-.282-.683l-.047-.037-.294-.27.004-.005-6.903-6.318.224-.28c.35-.437.653-.876.902-1.303l.25-.43.54.538a.604.604 0 0 0 .834 0 .59.59 0 0 0 0-.835l-3.708-3.708a.605.605 0 0 0-.835 0 .592.592 0 0 0 0 .835l.54.539-.43.25a11.852 11.852 0 0 0-2.364 1.85c-.462.463-.891.965-1.275 1.494l-.264.363-.352-.351a.605.605 0 0 0-.835 0 .592.592 0 0 0 0 .835L9.52 11.45a.604.604 0 0 0 .835 0 .587.587 0 0 0 0-.835l-.351-.351.364-.264a12.42 12.42 0 0 0 1.206-1.004l.283-.267 6.3 6.884.002-.002zm-5.904 5.338H1v-.383a2.05 2.05 0 0 1 1.926-2.044c.235-.525.763-.881 1.356-.881h4.691c.593 0 1.122.356 1.356.88a2.05 2.05 0 0 1 1.926 2.045v.383zm-10.429-.767h9.602a1.282 1.282 0 0 0-1.22-.896h-.47l-.063-.307a.719.719 0 0 0-.703-.57h-4.69a.719.719 0 0 0-.702.57l-.063.307h-.47c-.572 0-1.057.377-1.22.896z"/>
</svg>
