<svg xmlns="http://www.w3.org/2000/svg" width="21" height="16" viewBox="0 0 21 16">
    <path fill="#ACB2BE" fill-rule="nonzero" d="M12.73.005c.14.018.27.078.374.172l7.357 6.628a.684.684 0 0 1 0 1.022l-7.357 6.629a.693.693 0 0 1-.74.115.686.686 0 0 1-.41-.623v-2.943c-5.331.17-8.185 2.218-10.776 4.793a.693.693 0 0 1-.75.151.686.686 0 0 1-.428-.63C0 10.02 4.835 4.276 11.955 3.714V.69a.684.684 0 0 1 .231-.518.692.692 0 0 1 .545-.168zm.604 2.229v2.114c0 .37-.296.674-.668.686-5.945.19-10.15 4.435-11.085 8.579 2.594-2.236 5.848-4.008 11.063-4.008.381 0 .69.307.69.686v2.107l5.64-5.078-5.64-5.086z"/>
</svg>
