<svg xmlns="http://www.w3.org/2000/svg" width="14" height="14" viewBox="0 0 14 14">
    <path fill="#848B9A" d="M13.831 13.035L10.012 9.26c.807-.976 1.288-2.232 1.288-3.6C11.3 2.534 8.77 0 5.65 0 2.531 0 0 2.535 0 5.66c0 3.124 2.531 5.659 5.65 5.659 1.355 0 2.593-.477 3.567-1.268l3.83 3.786c.107.107.252.163.392.163.146 0 .292-.056.398-.168.218-.225.218-.578-.006-.797zM1.12 5.66c0-2.501 2.033-4.537 4.53-4.537 2.498 0 4.53 2.036 4.53 4.537 0 2.502-2.032 4.538-4.53 4.538-2.497 0-4.53-2.036-4.53-4.538z"/>
</svg>
