<svg xmlns="http://www.w3.org/2000/svg" width="21" height="22" viewBox="0 0 21 22">
    <path fill="#2C54E0" fill-rule="nonzero" stroke="#2C54E0" stroke-width=".3" d="M20.833 10.313h-.96V5.901a1.92 1.92 0 0 0-1.918-1.919h-1.3l-1.329-2.39a1.151 1.151 0 0 0-1.565-.447L8.658 3.982H2.96a1.92 1.92 0 0 0-1.918 1.919v13.173a1.92 1.92 0 0 0 1.918 1.919h14.996a1.92 1.92 0 0 0 1.918-1.919v-3.869h.96v-4.892zM17.955 4.75c.59 0 1.073.449 1.138 1.023h-1.442l-.568-1.023h.872zm-3.82-2.934a.39.39 0 0 1 .52.149l2.118 3.808H7.018l7.116-3.957zm4.971 17.258c0 .635-.517 1.151-1.151 1.151H2.959a1.153 1.153 0 0 1-1.151-1.15V5.9c0-.635.516-1.151 1.151-1.151h4.32l-1.84 1.023h-2.24a.384.384 0 1 0 0 .768H19.106v3.773H16.3a2.367 2.367 0 0 0-2.363 2.363v.165a2.367 2.367 0 0 0 2.363 2.364h2.806v3.868zm.96-4.636H16.3c-.88 0-1.596-.716-1.596-1.596v-.165c0-.88.716-1.596 1.596-1.596h3.765v3.357zm-2.59-1.647a.847.847 0 1 1-1.694 0 .847.847 0 0 1 1.693 0z"/>
</svg>
