<svg xmlns="http://www.w3.org/2000/svg" width="14" height="20" viewBox="0 0 14 20">
    <path fill="#2C54E0" fill-rule="nonzero" d="M6.998 0c-2.164 0-3.86.63-5.04 1.871C.512 3.391-.138 5.805.025 9.043c.128 2.559 1.544 3.865 2.71 4.51a6.3 6.3 0 0 0 .134.073 3.605 3.605 0 0 0-1.936 3.198v2.62c0 .307.25.556.556.556h11.018a.556.556 0 0 0 .556-.556v-2.62c0-1.38-.777-2.593-1.936-3.198l.134-.073c1.166-.645 2.582-1.951 2.71-4.51.164-3.238-.487-5.651-1.933-7.172C10.858.63 9.162 0 6.998 0zm-.904 14.33a.556.556 0 0 0 .556-.556v-.92a5.302 5.302 0 0 0 .696 0v.92c0 .308.25.557.557.557h.581l-1.486 1.485-1.486-1.485h.582zm2.395-1.112h-.03v-.554c.211-.06.419-.132.62-.216-.239.35-.454.613-.59.77zm1.636-2.82a4.29 4.29 0 0 1-3.127 1.356 4.291 4.291 0 0 1-3.127-1.356c-.442-1.284-.483-2.524-.125-3.708a.55.55 0 0 0 .35-.002c.008-.002.817-.255 2.902-.255s2.894.253 2.897.254c.116.04.24.04.355.001.358 1.185.317 2.425-.125 3.71zm-4.588 2.266v.554h-.03a8.706 8.706 0 0 1-.593-.771c.203.085.411.157.623.217zm6.414 4.16v2.064H2.046v-2.064c0-1.181.822-2.186 1.952-2.435l2.607 2.607a.554.554 0 0 0 .786 0L10 14.39a2.491 2.491 0 0 1 1.952 2.435zm.91-7.837c-.12 2.363-1.563 3.412-2.719 3.874.33-.51.683-1.15.96-1.89l.03-.083a.428.428 0 0 0 .008-.021c.639-1.785.913-4.441-1.257-7.147a.555.555 0 0 0-.915.627c.109.187.333.64.46 1.116-.52-.074-1.305-.143-2.43-.143-1.124 0-1.91.07-2.428.143.127-.474.35-.928.458-1.116a.556.556 0 0 0-.915-.627c-2.17 2.706-1.895 5.362-1.256 7.146a.653.653 0 0 0 .008.022l.03.083c.274.736.625 1.374.954 1.882a5.172 5.172 0 0 1-.575-.273c-1.336-.74-2.056-1.949-2.138-3.593-.147-2.922.4-5.058 1.628-6.35.963-1.011 2.387-1.525 4.234-1.525s3.272.514 4.234 1.526c1.228 1.29 1.776 3.427 1.629 6.35z"/>
</svg>
